<mxfile host="app.diagrams.net" modified="2023-12-26T16:26:52.227Z" agent="Mozilla/5.0 (Windows NT 10.0; Win64; x64) AppleWebKit/537.36 (KHTML, like Gecko) Chrome/120.0.0.0 Safari/537.36" version="22.1.11" etag="PaqH-G78hkEWox5p8CHm" type="device">
  <diagram id="WWKobYZtgiUawM5-BSAP" name="Сторінка-1">
    <mxGraphModel dx="1450" dy="565" grid="1" gridSize="10" guides="1" tooltips="1" connect="1" arrows="1" fold="1" page="0" pageScale="1" pageWidth="827" pageHeight="1169" background="none" math="0" shadow="0">
      <root>
        <mxCell id="0" />
        <mxCell id="1" parent="0" />
        <mxCell id="VNvHuFi4SlJEL6buC3LD-1" value="Початок" style="ellipse;whiteSpace=wrap;html=1;" vertex="1" parent="1">
          <mxGeometry x="85" y="120" width="130" height="80" as="geometry" />
        </mxCell>
        <mxCell id="VNvHuFi4SlJEL6buC3LD-10" style="edgeStyle=orthogonalEdgeStyle;rounded=0;orthogonalLoop=1;jettySize=auto;html=1;entryX=0.5;entryY=0;entryDx=0;entryDy=0;" edge="1" parent="1" source="VNvHuFi4SlJEL6buC3LD-2" target="VNvHuFi4SlJEL6buC3LD-24">
          <mxGeometry relative="1" as="geometry">
            <mxPoint x="130" y="350" as="targetPoint" />
          </mxGeometry>
        </mxCell>
        <mxCell id="VNvHuFi4SlJEL6buC3LD-2" value="Введення:&lt;br&gt;&amp;nbsp;parent node/internal node" style="shape=parallelogram;perimeter=parallelogramPerimeter;whiteSpace=wrap;html=1;fixedSize=1;" vertex="1" parent="1">
          <mxGeometry x="60" y="260" width="180" height="60" as="geometry" />
        </mxCell>
        <mxCell id="VNvHuFi4SlJEL6buC3LD-8" value="Кінець" style="ellipse;whiteSpace=wrap;html=1;" vertex="1" parent="1">
          <mxGeometry x="-210" y="480" width="120" height="80" as="geometry" />
        </mxCell>
        <mxCell id="VNvHuFi4SlJEL6buC3LD-9" style="edgeStyle=orthogonalEdgeStyle;rounded=0;orthogonalLoop=1;jettySize=auto;html=1;entryX=0.569;entryY=-0.044;entryDx=0;entryDy=0;entryPerimeter=0;" edge="1" parent="1" source="VNvHuFi4SlJEL6buC3LD-1" target="VNvHuFi4SlJEL6buC3LD-2">
          <mxGeometry relative="1" as="geometry" />
        </mxCell>
        <mxCell id="VNvHuFi4SlJEL6buC3LD-42" style="edgeStyle=orthogonalEdgeStyle;rounded=0;orthogonalLoop=1;jettySize=auto;html=1;entryX=0.5;entryY=0;entryDx=0;entryDy=0;" edge="1" parent="1" source="VNvHuFi4SlJEL6buC3LD-24" target="VNvHuFi4SlJEL6buC3LD-26">
          <mxGeometry relative="1" as="geometry" />
        </mxCell>
        <mxCell id="VNvHuFi4SlJEL6buC3LD-24" value="&lt;div style=&quot;&quot;&gt;&lt;pre style=&quot;&quot;&gt;&lt;div style=&quot;&quot;&gt;&lt;pre style=&quot;&quot;&gt;&lt;font face=&quot;Helvetica&quot;&gt;Queue&amp;lt;Node&amp;gt; queue = new LinkedList();&lt;/font&gt;&lt;/pre&gt;&lt;pre style=&quot;&quot;&gt;&lt;font face=&quot;Helvetica&quot;&gt;queue.add(node);&lt;/font&gt;&lt;/pre&gt;&lt;/div&gt;&lt;/pre&gt;&lt;/div&gt;" style="rounded=0;whiteSpace=wrap;html=1;" vertex="1" parent="1">
          <mxGeometry x="30" y="370" width="240" height="60" as="geometry" />
        </mxCell>
        <mxCell id="VNvHuFi4SlJEL6buC3LD-35" style="edgeStyle=orthogonalEdgeStyle;rounded=0;orthogonalLoop=1;jettySize=auto;html=1;entryX=0.5;entryY=0;entryDx=0;entryDy=0;" edge="1" parent="1" source="VNvHuFi4SlJEL6buC3LD-26" target="VNvHuFi4SlJEL6buC3LD-27">
          <mxGeometry relative="1" as="geometry" />
        </mxCell>
        <mxCell id="VNvHuFi4SlJEL6buC3LD-26" value="queue.peek()!=null" style="rhombus;whiteSpace=wrap;html=1;" vertex="1" parent="1">
          <mxGeometry x="77.5" y="470" width="145" height="80" as="geometry" />
        </mxCell>
        <mxCell id="VNvHuFi4SlJEL6buC3LD-36" style="edgeStyle=orthogonalEdgeStyle;rounded=0;orthogonalLoop=1;jettySize=auto;html=1;entryX=0.5;entryY=0;entryDx=0;entryDy=0;" edge="1" parent="1" source="VNvHuFi4SlJEL6buC3LD-27" target="VNvHuFi4SlJEL6buC3LD-28">
          <mxGeometry relative="1" as="geometry" />
        </mxCell>
        <mxCell id="VNvHuFi4SlJEL6buC3LD-27" value="Node node = queue.poll();" style="rounded=0;whiteSpace=wrap;html=1;" vertex="1" parent="1">
          <mxGeometry x="70" y="570" width="160" height="60" as="geometry" />
        </mxCell>
        <mxCell id="VNvHuFi4SlJEL6buC3LD-37" style="edgeStyle=orthogonalEdgeStyle;rounded=0;orthogonalLoop=1;jettySize=auto;html=1;entryX=0.5;entryY=0;entryDx=0;entryDy=0;" edge="1" parent="1" source="VNvHuFi4SlJEL6buC3LD-28" target="VNvHuFi4SlJEL6buC3LD-30">
          <mxGeometry relative="1" as="geometry" />
        </mxCell>
        <mxCell id="VNvHuFi4SlJEL6buC3LD-28" value="Виведення:&lt;br&gt;node.getValue();" style="shape=parallelogram;perimeter=parallelogramPerimeter;whiteSpace=wrap;html=1;fixedSize=1;" vertex="1" parent="1">
          <mxGeometry x="90" y="650" width="120" height="60" as="geometry" />
        </mxCell>
        <mxCell id="VNvHuFi4SlJEL6buC3LD-38" style="edgeStyle=orthogonalEdgeStyle;rounded=0;orthogonalLoop=1;jettySize=auto;html=1;entryX=0;entryY=0.5;entryDx=0;entryDy=0;" edge="1" parent="1" source="VNvHuFi4SlJEL6buC3LD-30" target="VNvHuFi4SlJEL6buC3LD-34">
          <mxGeometry relative="1" as="geometry" />
        </mxCell>
        <mxCell id="VNvHuFi4SlJEL6buC3LD-43" style="edgeStyle=orthogonalEdgeStyle;rounded=0;orthogonalLoop=1;jettySize=auto;html=1;endArrow=none;endFill=0;" edge="1" parent="1" source="VNvHuFi4SlJEL6buC3LD-30">
          <mxGeometry relative="1" as="geometry">
            <mxPoint x="10" y="510" as="targetPoint" />
          </mxGeometry>
        </mxCell>
        <mxCell id="VNvHuFi4SlJEL6buC3LD-55" style="edgeStyle=orthogonalEdgeStyle;rounded=0;orthogonalLoop=1;jettySize=auto;html=1;entryX=0.5;entryY=0;entryDx=0;entryDy=0;" edge="1" parent="1" source="VNvHuFi4SlJEL6buC3LD-30" target="VNvHuFi4SlJEL6buC3LD-32">
          <mxGeometry relative="1" as="geometry" />
        </mxCell>
        <mxCell id="VNvHuFi4SlJEL6buC3LD-30" value="queue.getLeft()!=null" style="rhombus;whiteSpace=wrap;html=1;" vertex="1" parent="1">
          <mxGeometry x="77.5" y="740" width="145" height="80" as="geometry" />
        </mxCell>
        <mxCell id="VNvHuFi4SlJEL6buC3LD-46" style="edgeStyle=orthogonalEdgeStyle;rounded=0;orthogonalLoop=1;jettySize=auto;html=1;endArrow=none;endFill=0;" edge="1" parent="1" source="VNvHuFi4SlJEL6buC3LD-32">
          <mxGeometry relative="1" as="geometry">
            <mxPoint x="10" y="510" as="targetPoint" />
          </mxGeometry>
        </mxCell>
        <mxCell id="VNvHuFi4SlJEL6buC3LD-53" style="edgeStyle=orthogonalEdgeStyle;rounded=0;orthogonalLoop=1;jettySize=auto;html=1;entryX=0;entryY=0.5;entryDx=0;entryDy=0;" edge="1" parent="1" source="VNvHuFi4SlJEL6buC3LD-32" target="VNvHuFi4SlJEL6buC3LD-33">
          <mxGeometry relative="1" as="geometry" />
        </mxCell>
        <mxCell id="VNvHuFi4SlJEL6buC3LD-32" value="queue.getRight()!=null" style="rhombus;whiteSpace=wrap;html=1;" vertex="1" parent="1">
          <mxGeometry x="77.5" y="840" width="145" height="80" as="geometry" />
        </mxCell>
        <mxCell id="VNvHuFi4SlJEL6buC3LD-40" style="edgeStyle=orthogonalEdgeStyle;rounded=0;orthogonalLoop=1;jettySize=auto;html=1;endArrow=none;endFill=0;" edge="1" parent="1" source="VNvHuFi4SlJEL6buC3LD-33">
          <mxGeometry relative="1" as="geometry">
            <mxPoint x="510" y="510" as="targetPoint" />
          </mxGeometry>
        </mxCell>
        <mxCell id="VNvHuFi4SlJEL6buC3LD-33" value="&lt;pre style=&quot;border-color: var(--border-color);&quot;&gt;&lt;font style=&quot;border-color: var(--border-color);&quot; color=&quot;#1a1a1a&quot;&gt;queue.add(node.getRight());&lt;/font&gt;&lt;/pre&gt;" style="rounded=0;whiteSpace=wrap;html=1;" vertex="1" parent="1">
          <mxGeometry x="270" y="850" width="180" height="60" as="geometry" />
        </mxCell>
        <mxCell id="VNvHuFi4SlJEL6buC3LD-39" style="edgeStyle=orthogonalEdgeStyle;rounded=0;orthogonalLoop=1;jettySize=auto;html=1;endArrow=none;endFill=0;" edge="1" parent="1" source="VNvHuFi4SlJEL6buC3LD-34">
          <mxGeometry relative="1" as="geometry">
            <mxPoint x="510" y="510" as="targetPoint" />
          </mxGeometry>
        </mxCell>
        <mxCell id="VNvHuFi4SlJEL6buC3LD-34" value="&lt;div style=&quot;font-family: &amp;quot;JetBrains Mono&amp;quot;, monospace;&quot;&gt;&lt;pre style=&quot;&quot;&gt;&lt;font style=&quot;background-color: rgb(255, 255, 255);&quot; color=&quot;#1a1a1a&quot;&gt;queue.add(node.getLeft());&lt;/font&gt;&lt;/pre&gt;&lt;/div&gt;" style="rounded=0;whiteSpace=wrap;html=1;" vertex="1" parent="1">
          <mxGeometry x="270" y="750" width="180" height="60" as="geometry" />
        </mxCell>
        <mxCell id="VNvHuFi4SlJEL6buC3LD-41" value="" style="edgeStyle=none;orthogonalLoop=1;jettySize=auto;html=1;rounded=0;" edge="1" parent="1">
          <mxGeometry width="100" relative="1" as="geometry">
            <mxPoint x="510" y="510" as="sourcePoint" />
            <mxPoint x="222.5" y="509.66" as="targetPoint" />
            <Array as="points" />
          </mxGeometry>
        </mxCell>
        <mxCell id="VNvHuFi4SlJEL6buC3LD-45" value="" style="edgeStyle=none;orthogonalLoop=1;jettySize=auto;html=1;rounded=0;" edge="1" parent="1">
          <mxGeometry width="100" relative="1" as="geometry">
            <mxPoint x="10" y="510" as="sourcePoint" />
            <mxPoint x="85" y="509.58" as="targetPoint" />
            <Array as="points" />
          </mxGeometry>
        </mxCell>
        <mxCell id="VNvHuFi4SlJEL6buC3LD-49" value="Ні" style="text;html=1;align=center;verticalAlign=middle;resizable=0;points=[];autosize=1;strokeColor=none;fillColor=none;" vertex="1" parent="1">
          <mxGeometry x="70" y="750" width="30" height="30" as="geometry" />
        </mxCell>
        <mxCell id="VNvHuFi4SlJEL6buC3LD-50" value="Ні" style="text;html=1;align=center;verticalAlign=middle;resizable=0;points=[];autosize=1;strokeColor=none;fillColor=none;" vertex="1" parent="1">
          <mxGeometry x="70" y="850" width="30" height="30" as="geometry" />
        </mxCell>
        <mxCell id="VNvHuFi4SlJEL6buC3LD-51" value="Так" style="text;html=1;align=center;verticalAlign=middle;resizable=0;points=[];autosize=1;strokeColor=none;fillColor=none;" vertex="1" parent="1">
          <mxGeometry x="200" y="750" width="40" height="30" as="geometry" />
        </mxCell>
        <mxCell id="VNvHuFi4SlJEL6buC3LD-52" value="Так" style="text;html=1;align=center;verticalAlign=middle;resizable=0;points=[];autosize=1;strokeColor=none;fillColor=none;" vertex="1" parent="1">
          <mxGeometry x="200" y="850" width="40" height="30" as="geometry" />
        </mxCell>
        <mxCell id="VNvHuFi4SlJEL6buC3LD-56" value="" style="endArrow=classic;html=1;rounded=0;exitX=0;exitY=0;exitDx=0;exitDy=0;entryX=0.796;entryY=0.12;entryDx=0;entryDy=0;entryPerimeter=0;" edge="1" parent="1" source="VNvHuFi4SlJEL6buC3LD-26" target="VNvHuFi4SlJEL6buC3LD-8">
          <mxGeometry width="50" height="50" relative="1" as="geometry">
            <mxPoint x="117.5" y="490" as="sourcePoint" />
            <mxPoint x="10" y="490" as="targetPoint" />
          </mxGeometry>
        </mxCell>
        <mxCell id="VNvHuFi4SlJEL6buC3LD-57" value="Так" style="text;html=1;align=center;verticalAlign=middle;resizable=0;points=[];autosize=1;strokeColor=none;fillColor=none;" vertex="1" parent="1">
          <mxGeometry x="150" y="540" width="40" height="30" as="geometry" />
        </mxCell>
        <mxCell id="VNvHuFi4SlJEL6buC3LD-58" value="Ні" style="text;html=1;align=center;verticalAlign=middle;resizable=0;points=[];autosize=1;strokeColor=none;fillColor=none;" vertex="1" parent="1">
          <mxGeometry x="100" y="460" width="30" height="30" as="geometry" />
        </mxCell>
      </root>
    </mxGraphModel>
  </diagram>
</mxfile>
